<svg id="Layer_1" data-name="Layer 1" xmlns="http://www.w3.org/2000/svg" viewBox="0 0 512 512">
  <defs>
    <style>
      .cls-1 {
        fill: red;
        stroke-width: 26.5px;
      }

      .cls-1, .cls-2, .cls-3, .cls-4 {
        stroke: #000;
        stroke-linejoin: round;
      }

      .cls-2 {
        fill: #c1b32d;
      }

      .cls-2, .cls-3, .cls-4 {
        stroke-width: 18.55px;
      }

      .cls-3 {
        fill: #fdee21;
      }

      .cls-4 {
        fill: #c1272d;
      }

      .cls-5 {
        fill: #613d5a;
      }
    </style>
  </defs>
  <polygon class="cls-1" points="354.81 17.45 157.19 17.45 17.45 157.19 17.45 354.81 157.19 494.55 354.81 494.55 494.55 354.81 494.55 157.19 354.81 17.45"/>
  <path class="cls-2" d="M385.72,312.11c0,13.05.59,26.13,0,39.15-.68,14.67-13.46,25.93-28.22,25.95-32.53,0-65.06.34-97.59-.08-35-.45-69.93-.16-104.9-.23-10.34,0-18.2-4.23-24-12.52a25.89,25.89,0,0,1-4.67-14.78c-.15-12.47,0-24.94,0-37.41,1.87,0,3.73-.07,5.6-.07Z"/>
  <path class="cls-3" d="M385.72,312.11H131.92c-1.87,0-3.73,0-5.6.07,0-12.93-.7-25.9.05-38.78a27.5,27.5,0,0,1,27-25.53c32.85,0,65.71.06,98.56.1,1.51,0,3-.07,4.54-.11q23.73,0,47.47,0c1.38,0,2.77-.22,4.15-.33,1.93.73,3.93.33,5.89.34,13.4,0,26.81.21,40.22-.07,5.91-.12,11.38.43,16.7,3.34,9.16,5,14.39,12.68,14.8,22.89C386.21,286.69,385.76,299.41,385.72,312.11Z"/>
  <path class="cls-4" d="M345,192.67c-1.21,11.86-11,20.74-25.32,22.36-2.72.31-3.18,1.31-3.13,3.69.13,6.53.06,13.06,0,19.58,0,6-2.4,8.62-8.49,9.27-1.51,0-3-.08-4.54-.08l-45.6-.13-45.61.13c-1.51,0-3,0-4.53.08-6.09-.65-8.47-3.23-8.49-9.27,0-6.52-.09-13.05,0-19.58,0-2.38-.41-3.38-3.13-3.69-14.31-1.62-24.11-10.5-25.33-22.36-1.34-13.11,1.33-24.9,11.44-34,14.46-13.07,32.19-18.57,50.94-21.86,7.39-1.3,14.85-.79,22.21-1.92a11.63,11.63,0,0,1,2.46-.2h0a11.55,11.55,0,0,1,2.45.2c7.36,1.13,14.82.62,22.21,1.92,18.75,3.29,36.49,8.79,50.94,21.86C343.64,167.77,346.32,179.56,345,192.67Z"/>
  <path class="cls-5" d="M266.1,247.36h0Z"/>
  <path class="cls-5" d="M267.64,247.35h0Z"/>
</svg>
